<svg id="レイヤー_1" data-name="レイヤー 1" xmlns="http://www.w3.org/2000/svg" width="297mm" height="120mm" viewBox="0 0 841.89 340.157"><defs><style>.cls-1{fill:#f39800;}</style></defs><title>gangle</title><path class="cls-1" d="M224,185.084v41.161a179.653,179.653,0,0,1-21.82,6.28,105.192,105.192,0,0,1-49-.416,58.241,58.241,0,0,1-20.221-9.274,42.385,42.385,0,0,1-13.015-15.62q-4.59-9.382-4.586-21.94,0-23.012,17.073-36.3T179.3,135.663a119.12,119.12,0,0,1,21.245,1.964,135.546,135.546,0,0,1,23.378,6.67v15.141H222.44q-2.542-1.546-7.366-4.06a76.826,76.826,0,0,0-9.5-4.186,85.19,85.19,0,0,0-12.809-3.323,90.26,90.26,0,0,0-16.25-1.318q-20.469,0-32.38,10.348-11.913,10.327-11.913,27.984,0,18.626,12.447,28.963t33.893,10.339a100.25,100.25,0,0,0,15.673-1.222,87.423,87.423,0,0,0,13.72-3.156V196.286h-32.67v-11.2Z"/><path d="M256.364,166.661v41.177a186.657,186.657,0,0,1-21.812,6.28,105.651,105.651,0,0,1-49-.423,58.147,58.147,0,0,1-20.222-9.278,42.275,42.275,0,0,1-13.023-15.626q-4.578-9.369-4.585-21.931,0-23,17.073-36.313,17.066-13.3,46.874-13.293a118.99,118.99,0,0,1,21.237,1.964,135.891,135.891,0,0,1,23.376,6.664v15.139h-1.477q-2.529-1.543-7.368-4.058a76.555,76.555,0,0,0-9.491-4.186,84.469,84.469,0,0,0-12.814-3.317,90.518,90.518,0,0,0-16.251-1.327q-20.469,0-32.382,10.342t-11.9,27.993q0,18.624,12.441,28.961t33.89,10.347a101.455,101.455,0,0,0,15.684-1.229,88.669,88.669,0,0,0,13.71-3.155V177.877H207.658V166.661Z"/><path d="M308.87,185.961v11.658h-40.2V185.961Z"/><path d="M369.662,204.818a42.3,42.3,0,0,1-14.82,2.476q-9.745,0-14.5-3.116a10.425,10.425,0,0,1-4.745-9.316,10.228,10.228,0,0,1,4.09-8.6,27.376,27.376,0,0,1,10.731-4.609,106.477,106.477,0,0,1,15.1-1.862q9.541-.646,16.578-.975v20.038A71.516,71.516,0,0,1,369.662,204.818Zm25.056-48.736a20.875,20.875,0,0,0-7.863-7.67,37.829,37.829,0,0,0-12.408-4.282,98.324,98.324,0,0,0-16.817-1.263,123.73,123.73,0,0,0-16.786,1.167q-8.51,1.148-13.016,2.126v12.3h.816a130.436,130.436,0,0,1,15.394-3.642,82.685,82.685,0,0,1,13.5-1.255,86.068,86.068,0,0,1,9.579.519,26.14,26.14,0,0,1,7.861,2,12.271,12.271,0,0,1,5.282,4.251,11.935,11.935,0,0,1,1.837,6.831v1.862q-13.425.526-25.135,1.55a84.073,84.073,0,0,0-20.054,3.931q-8.269,2.9-12.727,7.956T319.728,195.7q0,9.984,8.588,16.435t20.964,6.441a60.552,60.552,0,0,0,11.705-1,54.425,54.425,0,0,0,8.843-2.484,42.2,42.2,0,0,0,6.752-3.125q3.477-1.953,5.521-3.058v7.67H397.41V167.747A23.153,23.153,0,0,0,394.718,156.082Z"/><path d="M492.164,169.873V216.58H476.779V175.6a56.041,56.041,0,0,0-.738-9.307,14.683,14.683,0,0,0-2.7-6.8,12.224,12.224,0,0,0-5.895-4.026,31.49,31.49,0,0,0-9.985-1.319,39.269,39.269,0,0,0-13.184,2.446,73.5,73.5,0,0,0-13.182,6.247V216.58H415.7V144.609h15.389V152.6a67.181,67.181,0,0,1,14.9-7.343,48.484,48.484,0,0,1,15.806-2.642q14.811,0,22.595,7.031T492.164,169.873Z"/><path d="M560.744,202.245a46.6,46.6,0,0,1-13.46,2.028q-12.525,0-17.929-6.245t-5.41-18.368q0-12.751,7.288-19.456t19.972-6.7a60.2,60.2,0,0,1,10.525.935,70.966,70.966,0,0,1,11.423,3.122V196.8A53.988,53.988,0,0,1,560.744,202.245Zm13.393-57.636-.984,3.1a66.894,66.894,0,0,0-11.338-3.834,59.394,59.394,0,0,0-13.3-1.261,47.684,47.684,0,0,0-15.148,2.547,38.185,38.185,0,0,0-12.935,7.12,34.332,34.332,0,0,0-12.36,27.643q0,16.944,9.614,26.253t26,9.307q9.831,0,16.164-2.164a63.06,63.06,0,0,0,13.31-6.534v6.574a23.952,23.952,0,0,1-1.229,7.919,14.08,14.08,0,0,1-4.092,6.056,19.644,19.644,0,0,1-8.029,4.13A48.273,48.273,0,0,1,546.8,232.94a79.863,79.863,0,0,1-16.379-1.708q-8.193-1.7-11.95-2.861h-.82v12.368a135.29,135.29,0,0,0,13.635,2.285,122.9,122.9,0,0,0,14.2.807q21.943,0,32.5-8.573,10.554-8.554,10.557-26.86V144.609Z"/><path d="M623.937,116.327V216.58H608.548V116.327Z"/><path d="M667.468,158.336q7.327-5.73,19.689-5.738,12.28,0,18.3,5.227t6.1,14.748H659.162A20.578,20.578,0,0,1,667.468,158.336Zm49.041-7.214q-10.031-8.511-28.53-8.509-19.982,0-32.212,10.377-12.251,10.365-12.241,28.02,0,17.853,12.777,27.546t35.529,9.7a81.235,81.235,0,0,0,17.025-1.741,154.256,154.256,0,0,0,15.881-4.315V198.987h-.823q-4.011,2.841-13.461,5.766a63.008,63.008,0,0,1-18.793,2.933,50.772,50.772,0,0,1-12.891-1.541,30.261,30.261,0,0,1-10.11-4.642,22.354,22.354,0,0,1-6.963-8.085,24.99,24.99,0,0,1-2.535-11.561h67.372v-6.576Q726.534,159.618,716.509,151.122Z"/></svg>