<svg id="レイヤー_1" data-name="レイヤー 1" xmlns="http://www.w3.org/2000/svg" width="297mm" height="120mm" viewBox="0 0 841.89 340.157"><defs><style>.cls-1{fill:#e95050;}</style></defs><title>helixes</title><path class="cls-1" d="M224.465,229.27V177.989H159.727V229.27h-20V108.524h20v51.1h64.738v-51.1h20V229.27Z"/><path class="cls-1" d="M325.442,204.539h20.912c-6.183,16.729-22.367,27.1-40.915,27.1-26,0-45.28-18.912-45.28-44.916,0-25.459,18.366-44.734,44.37-44.734,25.277,0,43.1,19.275,43.1,44.007a53.667,53.667,0,0,1-.364,7.637h-67.1c2.182,12,12.547,20.185,25.277,20.185C313.986,213.813,321.26,210.9,325.442,204.539Zm-44.916-26.368H327.26c-1.818-11.275-10.546-18.912-22.731-18.912C292.164,159.259,282.163,166.9,280.526,178.171Z"/><path class="cls-1" d="M381.759,108.524V229.27H362.483V108.524Z"/><path class="cls-1" d="M401.124,108.524H420.4V127.8H401.124ZM420.4,144.348V229.27H401.124V144.348Z"/><path class="cls-1" d="M488.081,185.991l34.732,43.279H498.627l-22.912-28.187L452.621,229.27H429.708l34.552-42.552-34.006-42.37H454.8l21.82,27.276,22-27.276h23.641Z"/><path class="cls-1" d="M588.094,204.539h20.913c-6.183,16.729-22.367,27.1-40.916,27.1-26,0-45.28-18.912-45.28-44.916,0-25.459,18.367-44.734,44.371-44.734,25.277,0,43.1,19.275,43.1,44.007a53.667,53.667,0,0,1-.364,7.637h-67.1c2.181,12,12.547,20.185,25.276,20.185C576.638,213.813,583.912,210.9,588.094,204.539Zm-44.917-26.368h46.736c-1.819-11.275-10.548-18.912-22.731-18.912C554.816,159.259,544.815,166.9,543.177,178.171Z"/><path class="cls-1" d="M681.252,168.9c-3.637-7.092-11.638-10.183-23.095-10.183-10.91,0-18,3.818-18,10,0,5.819,5.637,8.183,15.638,9.092l16.184,1.273c18.55,1.455,29.279,9.456,29.279,25.277,0,15.457-14.366,27.277-38.734,27.277-24.912,0-40.37-11.457-44.189-28.186h21.1c2.909,7.819,11.638,11.456,25.1,11.456,9.819,0,17.457-3.456,17.457-9.638,0-6-5.457-8.546-15.458-9.456l-17.274-1.637c-18.731-1.818-28.369-9.638-28.369-24.73,0-15.639,14.366-27.459,37.642-27.459,25.459,0,39.279,11.638,43.644,26.913Z"/></svg>