<svg id="レイヤー_1" data-name="レイヤー 1" xmlns="http://www.w3.org/2000/svg" width="297mm" height="120mm" viewBox="0 0 841.89 340.157"><defs><style>.cls-1{fill:#d52b80;}</style></defs><title>kooki</title><polygon class="cls-1" points="664.245 234.465 678.895 105.695 703.509 105.695 688.857 234.465 664.245 234.465 664.245 234.465"/><polygon class="cls-1" points="128.016 234.465 142.668 105.695 167.278 105.695 161.231 158.843 161.589 158.843 199.56 105.695 226.491 105.695 187.413 157.597 215.582 234.465 187.942 234.465 168.408 180.422 157.111 195.047 152.626 234.465 128.016 234.465 128.016 234.465"/><polygon class="cls-1" points="545.265 234.465 559.917 105.695 584.529 105.695 578.482 158.843 578.838 158.843 616.811 105.695 643.739 105.695 604.663 157.597 632.832 234.465 605.193 234.465 585.657 180.422 574.36 195.047 569.874 234.465 545.265 234.465 545.265 234.465"/><path class="cls-1" d="M273.119,143.863c1.623-14.267,8.315-18.191,18.118-18.191s15.6,3.924,13.98,18.191L299.25,196.3c-1.623,14.27-8.306,18.189-18.118,18.189s-15.6-3.919-13.98-18.189l5.967-52.433Zm-30.213,49.22c-3.612,31.752,11.854,43.163,35.749,43.163s41.968-11.411,45.58-43.163l5.237-46.013c3.611-31.742-11.863-43.159-35.759-43.159s-41.958,11.417-45.57,43.159l-5.237,46.013Z"/><path class="cls-1" d="M385.4,143.863c1.625-14.267,8.317-18.191,18.12-18.191s15.6,3.924,13.981,18.191L411.532,196.3c-1.621,14.27-8.306,18.189-18.117,18.189s-15.605-3.919-13.98-18.189l5.965-52.433Zm-30.211,49.22c-3.613,31.752,11.854,43.163,35.75,43.163s41.967-11.411,45.58-43.163l5.236-46.013c3.612-31.742-11.864-43.159-35.758-43.159s-41.959,11.417-45.571,43.159l-5.237,46.013Z"/><polygon class="cls-1" points="470.843 175.62 473.076 156.003 510.564 156.003 515.924 165.042 508.331 175.62 470.843 175.62 470.843 175.62"/><path class="cls-1" d="M765.264,118.881l6.884-14.16h8.667l-2.657,23.339h-6l1.8-15.863h-.117l-7.354,15.863H761.9l-3.75-15.863h-.114l-1.805,15.863h-6l2.657-23.339h8.667l3.708,14.16Zm-16.659-9.4h-6.513l-2.114,18.58h-6.349l2.114-18.58h-6.458l.543-4.759h19.318l-.541,4.759Z"/></svg>