<svg xmlns="http://www.w3.org/2000/svg" xmlns:xlink="http://www.w3.org/1999/xlink" width="217.097" height="60.607" viewBox="0 0 217.097 60.607"><defs><style>.cls-1{fill:url(#新規グラデーションスウォッチ_2);}.cls-2{fill:#231815;}</style><linearGradient id="新規グラデーションスウォッチ_2" x1="181.294" y1="44.228" x2="181.294" y2="16.5" gradientUnits="userSpaceOnUse"><stop offset="0" stop-color="#e6e6e6"/><stop offset="1" stop-color="#62d8da"/></linearGradient></defs><title>logo-text</title><g id="レイヤー_2" data-name="レイヤー 2"><g id="ロゴ"><path class="cls-1" d="M194.921,30.243c-1.054,2.683-5.357,1.516-9.236,5.821-3.361,3.731-2.271,6.984-4.507,7.922-3.767,1.58-13.743-4.761-13.743-13.743A13.743,13.743,0,0,1,181.178,16.5C190.151,16.5,196.461,26.321,194.921,30.243Z"/><path class="cls-2" d="M215.947,44.721l-6-6a29.988,29.988,0,1,0-29.89,21.492c.546.02,1.122.021,1.122.021a30.013,30.013,0,0,0,7.015-.832,29.461,29.461,0,0,0,4.015-1.281,3.834,3.834,0,0,0,2.29-3.5v0a3.815,3.815,0,0,0-.078-.758c-.008-.043-.026-.082-.037-.125a3.759,3.759,0,0,0-.184-.589c-.017-.041-.043-.078-.061-.118a3.856,3.856,0,0,0-.292-.535c-.015-.023-.034-.042-.05-.064a4.038,4.038,0,0,0-.373-.469h0l0-.005-.009-.008-.073-.072h0l-1.46-1.462a49.487,49.487,0,0,1-5.046-5.231,7.336,7.336,0,0,1-.711-1.2,6.665,6.665,0,0,1,8.807-8.847,6.744,6.744,0,0,1,2.283,1.694l8.707,8.706.644.586h0l4.084,4.084a3.811,3.811,0,0,0,5.806-.495A4,4,0,0,0,215.947,44.721Zm-38.055-3.513a14.245,14.245,0,0,0,.512,3.737,14.428,14.428,0,0,0,5.037,7.545,22.364,22.364,0,1,1-3.863-44.556c.476-.033.949-.046,1.421-.05.134,0,.268,0,.4,0,.6.006,1.2.031,1.795.084.11.01.219.024.329.035.6.063,1.2.143,1.792.253.068.013.135.029.2.042.57.112,1.134.248,1.691.4.09.025.182.047.271.073.569.167,1.129.361,1.683.574.108.041.217.081.325.124.544.218,1.078.46,1.6.722.1.052.21.105.314.159q.79.409,1.552.883c.087.054.173.112.26.167.518.334,1.027.687,1.521,1.066.055.043.109.088.164.132.519.406,1.027.832,1.516,1.288a22.44,22.44,0,0,1,7.124,16.352c0,.659-.029,1.322-.088,1.984L202.322,31.1a2.628,2.628,0,0,0-.367-.3,14.277,14.277,0,0,0-24.063,10.417ZM187.6,59.549l-.012-.026h0Z"/><path class="cls-2" d="M30.243,60.607a30.243,30.243,0,1,1,22.5-50.452,4.32,4.32,0,1,1-6.426,5.774,21.6,21.6,0,1,0,0,28.871,4.319,4.319,0,0,1,6.424,5.775A30.3,30.3,0,0,1,30.243,60.607Z"/><path class="cls-2" d="M109.749,44.68A21.606,21.606,0,0,1,72.506,34.562h21.17a4.319,4.319,0,1,0,0-8.638H72.506a21.606,21.606,0,0,1,37.245-10.115,4.319,4.319,0,0,0,6.424-5.776,30.243,30.243,0,1,0,0,40.42,4.319,4.319,0,0,0-6.426-5.773Z"/><path class="cls-2" d="M136.028,41.17a4.561,4.561,0,0,1-4.56-4.561V9.946a4.561,4.561,0,0,1,9.121,0V36.609A4.561,4.561,0,0,1,136.028,41.17Z"/><circle class="cls-2" cx="136.028" cy="52.955" r="5.378"/></g></g></svg>