<svg id="レイヤー_1" data-name="レイヤー 1" xmlns="http://www.w3.org/2000/svg" width="297mm" height="120mm" viewBox="0 0 841.89 340.157"><defs><style>.cls-1{fill:#231815;}</style></defs><title>wacom</title><path class="cls-1" d="M721.12,139.048a10.323,10.323,0,1,1,3-7.3A9.927,9.927,0,0,1,721.12,139.048Zm-13.507-13.532a8.53,8.53,0,0,0-2.575,6.255,8.714,8.714,0,0,0,2.563,6.3,8.806,8.806,0,0,0,12.491,0,8.679,8.679,0,0,0,2.573-6.3,8.532,8.532,0,0,0-2.573-6.255,8.763,8.763,0,0,0-12.479,0Zm6.038.566a8.547,8.547,0,0,1,3.079.408,2.794,2.794,0,0,1,1.738,2.851,2.472,2.472,0,0,1-1.1,2.237,4.307,4.307,0,0,1-1.624.542,2.728,2.728,0,0,1,1.937,1.118,3,3,0,0,1,.607,1.745v.818a8.336,8.336,0,0,0,.042.841,1.931,1.931,0,0,0,.091.6l.066.145h-1.858c-.019-.048-.031-.084-.043-.121a.622.622,0,0,0-.024-.131l-.042-.361v-.9a2.776,2.776,0,0,0-1.052-2.586,4.866,4.866,0,0,0-2.22-.361H711.69v4.462H709.7V126.082Zm2.14,1.78a5.073,5.073,0,0,0-2.4-.421h-1.7v4.089h1.792a5.425,5.425,0,0,0,1.895-.252,2.037,2.037,0,0,0,.414-3.416Z"/><path class="cls-1" d="M237.167,121.584v73.261c0,12.966-7.274,19.269-22.252,19.269-14.195,0-22.016-6.411-22.016-18.03v-74.5H179.47v74.5c0,11.619-7.821,18.03-22.017,18.03-14.978,0-22.252-6.3-22.252-19.269V121.584H121.769v75.005c0,18.656,13.756,30.719,35.073,30.719,14.2,0,22.8-3.536,29.342-11.98,6.546,8.444,15.146,11.98,29.342,11.98,21.3,0,35.07-12.063,35.07-30.719v-75Z"/><path class="cls-1" d="M508.63,120.85H491.219c-24.783,0-36.053,16.43-36.053,31.705V195.59c0,15.276,11.246,31.718,35.939,31.718h17.651c24.705,0,35.958-16.442,35.958-31.718V152.555C544.714,137.28,533.425,120.85,508.63,120.85Zm22.636,73c0,12.871-8.425,20.268-23.129,20.268H491.73c-14.914,0-23.135-7.193-23.135-20.268V154.311c0-12.894,8.431-20.279,23.135-20.279h16.407c14.7,0,23.129,7.385,23.129,20.279Z"/><path class="cls-1" d="M625.035,133.07c-6.543-8.444-15.143-11.968-29.341-11.968-21.314,0-35.086,12.052-35.086,30.708V226.8h13.447V153.554c0-12.967,7.289-19.269,22.252-19.269,14.193,0,22,6.4,22,18.03V226.8h13.441V152.315c0-11.632,7.818-18.03,22-18.03,14.974,0,22.263,6.3,22.263,19.269V226.8h13.43V151.81c0-18.656-13.767-30.708-35.056-30.708C640.184,121.1,631.584,124.626,625.035,133.07Z"/><path class="cls-1" d="M403.067,120.85c-24.693,0-35.942,16.43-35.942,31.705V195.59c0,15.276,11.249,31.718,35.942,31.718h15.288c12.581,0,20.778-1.84,27.4-6.134l.854-.553-7.7-11.2-.807.481c-4.937,2.983-11.173,4.21-21.5,4.21H403.678c-14.9,0-23.124-7.193-23.124-20.268V154.311c0-13.086,8.224-20.279,23.124-20.279h12.933c10.314,0,16.538,1.227,21.5,4.21l.807.493,7.7-11.2-.854-.565c-6.615-4.294-14.806-6.122-27.4-6.122Z"/><path class="cls-1" d="M303.567,120.85c-11.9,0-17.522,1.287-23.731,3.668l-1.064.421,6.7,11.968.818-.337c4.585-1.876,9.559-2.538,19.031-2.538H315.4c14.689,0,23.121,7.385,23.121,20.279v39.535c0,12.871-8.432,20.268-23.121,20.268H298.984c-15.068,0-22.381-6.11-22.381-18.655,0-12.473,7.313-18.523,22.381-18.523H321.87V163.753H298.347c-22.354,0-35.188,11.6-35.188,31.837,0,19.558,13.484,31.718,35.188,31.718h17.666c24.693,0,35.939-16.442,35.939-31.718V152.555c0-15.275-11.246-31.705-35.939-31.705Z"/></svg>